<svg width="60" height="60" viewBox="0 0 60 60" fill="none" xmlns="http://www.w3.org/2000/svg">
<path d="M45.125 14.875H45.1525M16.25 2.5H43.75C51.3439 2.5 57.5 8.65608 57.5 16.25V43.75C57.5 51.3439 51.3439 57.5 43.75 57.5H16.25C8.65608 57.5 2.5 51.3439 2.5 43.75V16.25C2.5 8.65608 8.65608 2.5 16.25 2.5ZM41 28.2675C41.3394 30.5562 40.9485 32.8936 39.8828 34.9473C38.8172 37.001 37.1312 38.6664 35.0645 39.7066C32.9978 40.7468 30.6557 41.1089 28.3714 40.7413C26.0871 40.3737 23.9768 39.2952 22.3408 37.6592C20.7048 36.0232 19.6263 33.9129 19.2587 31.6286C18.8911 29.3443 19.2532 27.0022 20.2934 24.9355C21.3336 22.8688 22.999 21.1828 25.0527 20.1172C27.1064 19.0515 29.4438 18.6606 31.7325 19C34.067 19.3462 36.2283 20.434 37.8972 22.1028C39.566 23.7717 40.6538 25.933 41 28.2675Z" stroke="#F19EDC" stroke-width="4" stroke-linecap="round" stroke-linejoin="round"/>
</svg>
