<svg width="59" height="56" viewBox="0 0 59 56" fill="none" xmlns="http://www.w3.org/2000/svg">
<path d="M40.3333 18.6667C44.6431 18.6667 48.7763 20.3787 51.8238 23.4262C54.8713 26.4736 56.5833 30.6069 56.5833 34.9167V53.875H45.75V34.9167C45.75 33.4801 45.1793 32.1023 44.1635 31.0865C43.1477 30.0707 41.7699 29.5 40.3333 29.5C38.8967 29.5 37.519 30.0707 36.5032 31.0865C35.4873 32.1023 34.9167 33.4801 34.9167 34.9167V53.875H24.0833V34.9167C24.0833 30.6069 25.7954 26.4736 28.8428 23.4262C31.8903 20.3787 36.0236 18.6667 40.3333 18.6667Z" stroke="#F19EDC" stroke-width="4" stroke-linecap="round" stroke-linejoin="round"/>
<path d="M13.25 21.375H2.41666V53.875H13.25V21.375Z" stroke="#F19EDC" stroke-width="4" stroke-linecap="round" stroke-linejoin="round"/>
<path d="M7.83332 13.25C10.8249 13.25 13.25 10.8249 13.25 7.83333C13.25 4.84179 10.8249 2.41667 7.83332 2.41667C4.84178 2.41667 2.41666 4.84179 2.41666 7.83333C2.41666 10.8249 4.84178 13.25 7.83332 13.25Z" stroke="#F19EDC" stroke-width="4" stroke-linecap="round" stroke-linejoin="round"/>
</svg>
