<svg width="130" height="130" viewBox="0 0 130 130" fill="none" xmlns="http://www.w3.org/2000/svg">
<path d="M27.0014 13.2031C19.5837 13.2031 14.0951 19.6954 14.3408 26.7363C14.5765 33.5008 14.2703 42.2614 12.0647 49.4059C9.85246 56.5713 6.1111 61.1103 0 61.6931V68.2724C6.1111 68.8552 9.85246 73.3942 12.0647 80.5597C14.2703 87.7041 14.5765 96.4648 14.3408 103.229C14.0951 110.269 19.5837 116.762 27.0025 116.762H103.008C110.426 116.762 115.914 110.27 115.668 103.229C115.432 96.4648 115.739 87.7041 117.944 80.5597C120.157 73.3942 123.889 68.8552 130 68.2724V61.6931C123.889 61.1103 120.157 56.5713 117.944 49.4059C115.739 42.2625 115.432 33.5008 115.668 26.7363C115.914 19.6965 110.426 13.2031 103.008 13.2031H27.0003H27.0014ZM88.1356 76.9505C88.1356 86.6454 80.9041 92.5252 68.9033 92.5252H48.4746C47.2577 92.5252 46.2712 91.5387 46.2712 90.3218V39.6438C46.2712 38.4269 47.2577 37.4404 48.4746 37.4404H68.7865C78.7932 37.4404 85.3604 42.8608 85.3604 51.183C85.3604 57.0241 80.9426 62.2539 75.3141 63.1694V63.4746C82.9764 64.3152 88.1356 69.6209 88.1356 76.9505ZM66.6757 44.4252H55.0275V60.8779H64.8381C72.4221 60.8779 76.6042 57.824 76.6042 52.3651C76.6042 47.2499 73.0082 44.4252 66.6757 44.4252ZM55.0275 67.4065V85.5382H67.1042C75.0001 85.5382 79.1832 82.3697 79.1832 76.4151C79.1832 70.4593 74.8833 67.4054 66.5964 67.4054H55.0275V67.4065Z" fill="#7E13F8"/>
<path d="M88.1356 76.9505C88.1356 86.6454 80.9041 92.5252 68.9033 92.5252H48.4746C47.2577 92.5252 46.2712 91.5387 46.2712 90.3218V39.6438C46.2712 38.4269 47.2577 37.4404 48.4746 37.4404H68.7865C78.7932 37.4404 85.3604 42.8608 85.3604 51.183C85.3604 57.0242 80.9426 62.2539 75.3141 63.1694V63.4746C82.9763 64.3152 88.1356 69.6209 88.1356 76.9505ZM66.6757 44.4252H55.0275V60.8779H64.838C72.4221 60.8779 76.6041 57.824 76.6041 52.3651C76.6041 47.2499 73.0082 44.4252 66.6757 44.4252ZM55.0275 67.4065V85.5382H67.1042C75.0001 85.5382 79.1832 82.3698 79.1832 76.4151C79.1832 70.4593 74.8833 67.4054 66.5964 67.4054H55.0275V67.4065Z" fill="white"/>
</svg>
