<svg width="125" height="125" viewBox="0 0 125 125" fill="none" xmlns="http://www.w3.org/2000/svg">
<g clip-path="url(#clip0_25_123)">
<path d="M41.8294 125C53.3294 125 62.6628 115.667 62.6628 104.167V83.3333H41.8294C30.3294 83.3333 20.9961 92.6666 20.9961 104.167C20.9961 115.667 30.3294 125 41.8294 125Z" fill="#0ACF83"/>
<path d="M20.9961 62.5001C20.9961 51.0001 30.3294 41.6667 41.8294 41.6667H62.6628V83.3334H41.8294C30.3294 83.3334 20.9961 74.0001 20.9961 62.5001Z" fill="#A259FF"/>
<path d="M20.9961 20.8333C20.9961 9.33333 30.3294 0 41.8294 0H62.6628V41.6667H41.8294C30.3294 41.6667 20.9961 32.3333 20.9961 20.8333Z" fill="#F24E1E"/>
<path d="M62.6628 0H83.4961C94.9961 0 104.329 9.33333 104.329 20.8333C104.329 32.3333 94.9961 41.6667 83.4961 41.6667H62.6628V0Z" fill="#FF7262"/>
<path d="M104.329 62.5001C104.329 74.0001 94.9961 83.3334 83.4961 83.3334C71.9961 83.3334 62.6628 74.0001 62.6628 62.5001C62.6628 51.0001 71.9961 41.6667 83.4961 41.6667C94.9961 41.6667 104.329 51.0001 104.329 62.5001Z" fill="#1ABCFE"/>
</g>
<defs>
<clipPath id="clip0_25_123">
<rect width="125" height="125" fill="white"/>
</clipPath>
</defs>
</svg>
