<svg width="125" height="125" viewBox="0 0 125 125" fill="none" xmlns="http://www.w3.org/2000/svg">
<g clip-path="url(#clip0_25_98)">
<path d="M0 45.2381C0 29.4033 0 21.4859 3.08166 15.4378C5.79237 10.1177 10.1177 5.79237 15.4378 3.08166C21.4859 0 29.4033 0 45.2381 0H79.7619C95.5967 0 103.514 0 109.562 3.08166C114.882 5.79237 119.208 10.1177 121.918 15.4378C125 21.4859 125 29.4033 125 45.2381V79.7619C125 95.5967 125 103.514 121.918 109.562C119.208 114.882 114.882 119.208 109.562 121.918C103.514 125 95.5967 125 79.7619 125H45.2381C29.4033 125 21.4859 125 15.4378 121.918C10.1177 119.208 5.79237 114.882 3.08166 109.562C0 103.514 0 95.5967 0 79.7619V45.2381Z" fill="#001E36"/>
<path d="M26.7857 91.5904V36.6225C26.7857 36.2485 26.942 36.0349 27.3066 36.0349C32.6888 36.0349 38.0687 35.7144 43.4524 35.7144C52.1882 35.7144 61.6473 38.7014 64.9628 47.8404C65.7441 50.084 66.1607 52.381 66.1607 54.7849C66.1607 59.3789 65.1191 63.1716 63.0357 66.1631C57.2162 74.5194 47.1295 74.3896 38.0878 74.3896V91.537C38.1585 92.0447 37.7259 92.2849 37.3066 92.2849H27.4107C26.9941 92.2849 26.7857 92.0712 26.7857 91.5904ZM38.1399 46.3447V64.2934C41.725 64.5561 45.4765 64.5846 48.9212 63.4387C52.724 62.3418 54.8066 59.0499 54.8066 55.1054C54.9123 51.7442 53.0807 48.5192 49.9628 47.3062C46.5597 45.8912 41.8135 45.8065 38.1399 46.3447Z" fill="#31A8FF"/>
<path d="M98.6458 60.7473C97.0699 59.9168 95.3915 59.3092 93.6565 58.9411C91.4268 58.4165 82.633 56.5791 82.6297 61.1773C82.7077 63.7444 86.7826 65.0021 88.5832 65.7355C94.9039 67.9055 102.057 71.7845 101.916 79.5822C102.109 89.2894 92.7042 93.1699 84.6421 93.1709C80.445 93.2144 76.0727 92.5642 72.2316 90.7627C71.865 90.5686 71.6289 90.1535 71.6446 89.7306V80.4422C71.6033 80.0698 72.003 79.7443 72.3155 80.0122C76.079 82.2882 80.5399 83.3932 84.8936 83.4523C86.8155 83.4523 90.6247 83.266 90.5958 80.4422C90.5958 77.7323 86.0391 76.4864 84.2227 75.7979C81.5898 74.858 79.0933 73.5561 76.8016 71.9278C73.5991 69.6434 71.59 65.9808 71.6447 61.9513C71.6259 52.8112 80.2834 48.7086 88.0802 48.7066C91.7251 48.6766 95.6391 48.9465 99.0321 50.4267C99.52 50.5704 99.6212 51.0843 99.619 51.5448V60.2312C99.65 60.7704 99.0512 60.954 98.6458 60.7473Z" fill="#31A8FF"/>
</g>
<defs>
<clipPath id="clip0_25_98">
<rect width="125" height="125" fill="white"/>
</clipPath>
</defs>
</svg>
